<?xml version="1.0" encoding="UTF-8"?> <svg xmlns="http://www.w3.org/2000/svg" xmlns:xlink="http://www.w3.org/1999/xlink" xmlns:xodm="http://www.corel.com/coreldraw/odm/2003" xml:space="preserve" width="162.56mm" height="38.0998mm" version="1.1" style="shape-rendering:geometricPrecision; text-rendering:geometricPrecision; image-rendering:optimizeQuality; fill-rule:evenodd; clip-rule:evenodd" viewBox="0 0 16256 3809.98"> <defs> <style type="text/css"> .str0 {stroke:black;stroke-width:16.93;stroke-miterlimit:22.9256} .fil1 {fill:#FEFEFE} .fil5 {fill:black} .fil3 {fill:black} .fil2 {fill:#FCF11F} .fil4 {fill:#FFD08A} .fil0 {fill:black;fill-rule:nonzero} </style> </defs> <g id="Layer_x0020_1"> <metadata id="CorelCorpID_0Corel-Layer"></metadata> <path class="fil0" d="M1202.88 1633.8c116.79,0 210.98,35.79 282.54,107.36 71.57,71.57 107.36,171.47 107.36,299.72l0 558.22 -240.47 0 0 -525.59c0,-74.42 -18.89,-131.39 -56.68,-170.9 -37.78,-39.51 -89.32,-59.26 -154.59,-59.26 -65.27,0 -117.07,19.75 -155.43,59.26 -38.36,39.51 -57.54,96.48 -57.54,170.9l0 525.59 -240.47 0 0 -525.59c0,-74.42 -18.89,-131.39 -56.68,-170.9 -37.78,-39.51 -89.32,-59.26 -154.59,-59.26 -66.41,0 -118.79,19.75 -157.15,59.26 -38.36,39.51 -57.54,96.48 -57.54,170.9l0 525.59 -240.47 0 0 -951.55 240.47 0 0 115.07c30.91,-40.07 70.7,-71.56 119.37,-94.46 48.66,-22.9 102.2,-34.36 160.59,-34.36 74.43,0 140.85,15.75 199.24,47.24 58.41,31.49 103.63,76.43 135.69,134.84 30.93,-54.97 75.87,-99.05 134.84,-132.26 58.97,-33.21 122.81,-49.82 191.51,-49.82zm771.32 161.46c30.91,-50.38 71.27,-89.89 121.09,-118.52 49.81,-28.61 106.78,-42.94 170.9,-42.94l0 252.5 -63.55 0c-75.57,0 -132.54,17.74 -170.9,53.24 -38.36,35.49 -57.54,97.33 -57.54,185.49l0 474.07 -240.47 0 0 -951.55 240.47 0 0 147.71zm606.42 -8.59c30.91,-45.81 73.57,-83.02 127.96,-111.64 54.39,-28.63 116.51,-42.95 186.36,-42.95 81.3,0 154.87,20.05 220.72,60.12 65.83,40.08 117.93,97.05 156.3,170.9 38.36,73.87 57.54,159.45 57.54,256.78 0,97.33 -19.18,183.5 -57.54,258.5 -38.37,75 -90.47,133.12 -156.3,174.35 -65.85,41.22 -139.42,61.82 -220.72,61.82 -70.99,0 -133.11,-14.02 -186.36,-42.08 -53.25,-28.04 -95.9,-64.4 -127.96,-109.06l0 135.69 -240.47 0 0 -1271.02 240.47 0 0 458.59zm503.26 333.21c0,-57.25 -11.74,-106.77 -35.22,-148.57 -23.47,-41.79 -54.39,-73.57 -92.75,-95.33 -38.36,-21.75 -79.87,-32.63 -124.53,-32.63 -43.51,0 -84.44,11.17 -122.8,33.5 -38.36,22.33 -69.28,54.67 -92.75,97.04 -23.48,42.37 -35.21,92.17 -35.21,149.43 0,57.25 11.73,107.07 35.21,149.43 23.47,42.37 54.39,74.72 92.75,97.05 38.36,22.33 79.29,33.49 122.8,33.49 44.66,0 86.17,-11.45 124.53,-34.36 38.36,-22.89 69.28,-55.52 92.75,-97.89 23.48,-42.38 35.22,-92.75 35.22,-151.16zm1217.88 -17.16c0,34.34 -2.29,65.27 -6.87,92.74l-695.62 0c5.71,68.71 29.76,122.53 72.13,161.46 42.36,38.93 94.47,58.4 156.3,58.4 89.32,0 152.87,-38.37 190.65,-115.09l259.36 0c-27.48,91.61 -80.15,166.9 -158.02,225.87 -77.86,58.97 -173.48,88.45 -286.84,88.45 -91.6,0 -173.76,-20.32 -246.48,-60.97 -72.7,-40.65 -129.39,-98.18 -170.03,-172.62 -40.66,-74.43 -60.97,-160.31 -60.97,-257.64 0,-98.47 20.03,-184.93 60.1,-259.35 40.08,-74.44 96.2,-131.69 168.33,-171.77 72.14,-40.07 155.16,-60.12 249.05,-60.12 90.47,0 171.48,19.48 243.04,58.41 71.57,38.94 127.11,94.18 166.61,165.75 39.51,71.56 59.26,153.72 59.26,246.48zm-249.05 -68.72c-1.15,-61.82 -23.48,-111.36 -66.99,-148.57 -43.51,-37.21 -96.76,-55.82 -159.73,-55.82 -59.55,0 -109.65,18.03 -150.29,54.11 -40.66,36.07 -65.56,86.16 -74.72,150.28l451.73 0zm274.92 85.88c0,-96.18 19.17,-181.49 57.53,-255.91 38.36,-74.44 90.47,-131.69 156.31,-171.77 65.83,-40.07 139.41,-60.12 220.71,-60.12 70.99,0 133.11,14.32 186.35,42.95 53.26,28.62 95.91,64.7 127.97,108.21l0 -135.69 242.19 0 0 951.55 -242.19 0 0 -139.12c-30.92,44.64 -73.57,81.58 -127.97,110.78 -54.39,29.19 -117.07,43.79 -188.06,43.79 -80.17,0 -153.17,-20.6 -219,-61.82 -65.84,-41.23 -117.95,-99.35 -156.31,-174.35 -38.36,-75 -57.53,-161.17 -57.53,-258.5zm748.87 3.44c0,-58.39 -11.46,-108.5 -34.35,-150.29 -22.9,-41.79 -53.81,-73.85 -92.75,-96.18 -38.93,-22.33 -80.73,-33.5 -125.39,-33.5 -44.66,0 -85.87,10.88 -123.66,32.63 -37.79,21.76 -68.42,53.54 -91.9,95.33 -23.46,41.8 -35.21,91.32 -35.21,148.57 0,57.26 11.75,107.36 35.21,150.29 23.48,42.94 54.39,75.87 92.75,98.76 38.36,22.91 79.3,34.36 122.81,34.36 44.66,0 86.46,-11.16 125.39,-33.49 38.94,-22.33 69.85,-54.39 92.75,-96.18 22.89,-41.81 34.35,-91.9 34.35,-150.3zm917.31 -489.52c113.36,0 204.96,35.79 274.81,107.36 69.85,71.57 104.78,171.47 104.78,299.72l0 558.22 -240.47 0 0 -525.59c0,-75.57 -18.89,-133.69 -56.67,-174.33 -37.79,-40.66 -89.32,-60.98 -154.59,-60.98 -66.42,0 -118.8,20.32 -157.16,60.98 -38.36,40.64 -57.54,98.76 -57.54,174.33l0 525.59 -240.47 0 0 -951.55 240.47 0 0 118.51c32.06,-41.23 73,-73.57 122.81,-97.05 49.8,-23.47 104.49,-35.21 164.03,-35.21zm884.66 980.75c-77.86,0 -147.71,-14.02 -209.54,-42.08 -61.84,-28.04 -110.78,-66.12 -146.86,-114.22 -36.07,-48.09 -55.82,-101.33 -59.25,-159.74l242.18 0c4.57,36.65 22.61,66.99 54.09,91.04 31.5,24.04 70.72,36.07 117.66,36.07 45.81,0 81.6,-9.16 107.36,-27.48 25.76,-18.33 38.64,-41.79 38.64,-70.42 0,-30.92 -15.74,-54.1 -47.23,-69.57 -31.5,-15.46 -81.59,-32.34 -150.29,-50.67 -70.99,-17.18 -129.11,-34.92 -174.34,-53.24 -45.23,-18.33 -84.16,-46.37 -116.8,-84.16 -32.63,-37.79 -48.94,-88.75 -48.94,-152.87 0,-52.67 15.16,-100.77 45.51,-144.28 30.34,-43.5 73.86,-77.86 130.54,-103.06 56.68,-25.19 123.37,-37.79 200.1,-37.79 113.36,0 203.81,28.35 271.38,85.03 67.56,56.68 104.78,133.11 111.64,229.29l-230.15 0c-3.44,-37.78 -19.19,-67.84 -47.24,-90.16 -28.06,-22.33 -65.55,-33.5 -112.51,-33.5 -43.51,0 -77,8.02 -100.48,24.05 -23.46,16.03 -35.21,38.36 -35.21,66.98 0,32.07 16.03,56.4 48.11,73.01 32.06,16.59 81.86,33.49 149.42,50.67 68.7,17.16 125.39,34.91 170.05,53.24 44.65,18.31 83.3,46.66 115.94,85.02 32.63,38.36 49.51,89.03 50.66,152.01 0,54.96 -15.17,104.2 -45.51,147.71 -30.35,43.52 -73.87,77.58 -130.54,102.19 -56.69,24.63 -122.81,36.93 -198.39,36.93zm4615.24 0c-77.86,0 -147.71,-14.02 -209.54,-42.08 -61.84,-28.04 -110.78,-66.12 -146.86,-114.22 -36.07,-48.09 -55.82,-101.33 -59.25,-159.74l242.18 0c4.58,36.65 22.61,66.99 54.09,91.04 31.5,24.04 70.72,36.07 117.66,36.07 45.81,0 81.6,-9.16 107.36,-27.48 25.76,-18.33 38.64,-41.79 38.64,-70.42 0,-30.92 -15.74,-54.1 -47.23,-69.57 -31.5,-15.46 -81.59,-32.34 -150.29,-50.67 -70.99,-17.18 -129.11,-34.92 -174.34,-53.24 -45.23,-18.33 -84.16,-46.37 -116.8,-84.16 -32.63,-37.79 -48.94,-88.75 -48.94,-152.87 0,-52.67 15.16,-100.77 45.51,-144.28 30.34,-43.5 73.86,-77.86 130.54,-103.06 56.68,-25.19 123.38,-37.79 200.1,-37.79 113.36,0 203.81,28.35 271.38,85.03 67.56,56.68 104.78,133.11 111.64,229.29l-230.15 0c-3.44,-37.78 -19.18,-67.84 -47.24,-90.16 -28.06,-22.33 -65.55,-33.5 -112.51,-33.5 -43.51,0 -77,8.02 -100.48,24.05 -23.46,16.03 -35.21,38.36 -35.21,66.98 0,32.07 16.03,56.4 48.11,73.01 32.06,16.59 81.86,33.49 149.42,50.67 68.7,17.16 125.39,34.91 170.05,53.24 44.65,18.31 83.3,46.66 115.94,85.02 32.63,38.36 49.52,89.03 50.66,152.01 0,54.96 -15.17,104.2 -45.51,147.71 -30.35,43.52 -73.87,77.58 -130.54,102.19 -56.69,24.63 -122.81,36.93 -198.39,36.93zm764.44 -769.48l0 460.32c0,32.06 7.74,55.25 23.19,69.56 15.46,14.31 41.51,21.47 78.15,21.47l111.64 0 0 202.68 -151.15 0c-202.68,0 -304.01,-98.48 -304.01,-295.42l0 -458.61 -113.36 0 0 -197.52 113.36 0 0 -235.32 242.18 0 0 235.32 212.98 0 0 197.52 -212.98 0zm237.14 274.81c0,-96.18 19.17,-181.49 57.53,-255.91 38.36,-74.44 90.47,-131.69 156.31,-171.77 65.84,-40.07 139.41,-60.12 220.71,-60.12 70.99,0 133.11,14.32 186.36,42.95 53.25,28.62 95.9,64.7 127.96,108.21l0 -135.69 242.19 0 0 951.55 -242.19 0 0 -139.12c-30.92,44.64 -73.57,81.58 -127.96,110.78 -54.4,29.19 -117.08,43.79 -188.07,43.79 -80.17,0 -153.16,-20.6 -219,-61.82 -65.84,-41.23 -117.95,-99.35 -156.31,-174.35 -38.36,-75 -57.53,-161.17 -57.53,-258.5zm748.87 3.44c0,-58.39 -11.45,-108.5 -34.35,-150.29 -22.9,-41.79 -53.81,-73.85 -92.75,-96.18 -38.93,-22.33 -80.72,-33.5 -125.38,-33.5 -44.67,0 -85.88,10.88 -123.67,32.63 -37.79,21.76 -68.42,53.54 -91.9,95.33 -23.46,41.8 -35.21,91.32 -35.21,148.57 0,57.26 11.75,107.36 35.21,150.29 23.48,42.94 54.39,75.87 92.76,98.76 38.36,22.91 79.29,34.36 122.81,34.36 44.66,0 86.45,-11.16 125.38,-33.49 38.94,-22.33 69.85,-54.39 92.75,-96.18 22.9,-41.81 34.35,-91.9 34.35,-150.3zm328.18 0c0,-98.47 20.03,-184.64 60.1,-258.5 40.08,-73.85 95.62,-131.11 166.62,-171.75 70.99,-40.66 152.29,-60.99 243.9,-60.99 117.94,0 215.55,29.5 292.84,88.47 77.3,58.97 129.11,141.7 155.45,248.18l-259.36 0c-13.75,-41.21 -36.93,-73.57 -69.57,-97.03 -32.63,-23.48 -72.99,-35.21 -121.08,-35.21 -68.7,0 -123.1,24.9 -163.18,74.7 -40.07,49.82 -60.11,120.53 -60.11,212.13 0,90.46 20.04,160.6 60.11,210.4 40.08,49.82 94.48,74.72 163.18,74.72 97.33,0 160.87,-43.51 190.65,-130.54l259.36 0c-26.34,103.06 -78.44,184.93 -156.3,245.62 -77.87,60.69 -175.2,91.03 -291.99,91.03 -91.61,0 -172.91,-20.32 -243.9,-60.97 -71,-40.65 -126.54,-97.9 -166.62,-171.75 -40.07,-73.87 -60.1,-160.03 -60.1,-258.51zm1571.7 475.78l-322.9 -405.35 0 405.35 -240.47 0 0 -1271.02 240.47 0 0 723.1 319.47 -403.63 312.6 0 -419.1 477.48 422.53 474.07 -312.6 0zm716.35 15.45c-77.87,0 -147.72,-14.02 -209.54,-42.08 -61.84,-28.04 -110.79,-66.12 -146.86,-114.22 -36.07,-48.09 -55.82,-101.33 -59.25,-159.74l242.17 0c4.58,36.65 22.61,66.99 54.1,91.04 31.5,24.04 70.72,36.07 117.66,36.07 45.81,0 81.59,-9.16 107.35,-27.48 25.77,-18.33 38.65,-41.79 38.65,-70.42 0,-30.92 -15.74,-54.1 -47.23,-69.57 -31.5,-15.46 -81.59,-32.34 -150.29,-50.67 -71,-17.18 -129.11,-34.92 -174.35,-53.24 -45.22,-18.33 -84.15,-46.37 -116.79,-84.16 -32.63,-37.79 -48.94,-88.75 -48.94,-152.87 0,-52.67 15.16,-100.77 45.51,-144.28 30.34,-43.5 73.85,-77.86 130.54,-103.06 56.67,-25.19 123.37,-37.79 200.09,-37.79 113.36,0 203.82,28.35 271.39,85.03 67.56,56.68 104.77,133.11 111.63,229.29l-230.15 0c-3.43,-37.78 -19.18,-67.84 -47.23,-90.16 -28.06,-22.33 -65.55,-33.5 -112.51,-33.5 -43.51,0 -77,8.02 -100.48,24.05 -23.47,16.03 -35.21,38.36 -35.21,66.98 0,32.07 16.03,56.4 48.1,73.01 32.06,16.59 81.86,33.49 149.43,50.67 68.7,17.16 125.39,34.91 170.05,53.24 44.64,18.31 83.3,46.66 115.93,85.02 32.64,38.36 49.52,89.03 50.67,152.01 0,54.96 -15.18,104.2 -45.52,147.71 -30.35,43.52 -73.86,77.58 -130.53,102.19 -56.69,24.63 -122.81,36.93 -198.39,36.93z"></path> <circle class="fil1" cx="9188.6" cy="1900.78" r="1775.31"></circle> <circle class="fil2" cx="9188.6" cy="1900.78" r="1656.78"></circle> <path class="fil3 str0" d="M8119.91 2180.02l-142.73 -463.27c-70.83,-253.08 -84.57,-331.01 78.36,-459.56 119.03,-81.79 241.34,-125.87 342.72,-199.93 -132.53,-36.41 -184.13,-202.44 -71.36,-295.43 -52.5,86.97 -46.51,228.02 77.97,252.09 58.6,6 115.1,-20.58 169.69,-76.51 55.75,-79.58 123.34,-150.82 221.34,-200.66 -70.1,-49.15 -93.36,-207.49 3.42,-273.57 107.58,-66.33 232.24,-20.73 363.72,69.57 -123.61,-60.54 -260.17,-50.97 -329.04,75.94 -10.03,41.78 -10.09,75.52 14.28,89.56 12.72,10.24 45.51,8.43 91.51,-1.3 372.11,-52.64 689.22,67.61 994.58,224.73 409.21,218.55 556.31,415.24 541.35,598.43 4.04,126.16 -66.97,341.43 -150.3,571.33 82.45,-77.91 165.97,-90.71 250.75,-26.21 95.9,74.17 130.56,253.81 37.97,404.08 -85.31,143.58 -207.83,197.34 -343.39,219.94 -23.04,1.76 -40.49,2.58 -68.45,1.61l-63.05 -2.02c-96.97,276.95 -400.67,513.65 -687.3,567.59 -324.15,67.42 -585.31,-23.62 -815.21,-193.27l-196.1 -146.12c-47.35,-41.04 -83.35,-80.66 -116.38,-119.91 -163.32,86.73 -309.2,-82.37 -366.24,-119.54 -62.88,-47.18 -119.5,-116.52 -158.67,-247.6 -53.96,-167.9 -38.07,-287.04 93.22,-325.61 85.56,-18.83 160.48,10.3 227.34,75.64z"></path> <path class="fil4 str0" d="M8358.71 1391.02c-98.85,-111.74 -4.3,-253.57 197.7,-322.33 90.85,188.9 526.47,178.35 949.8,23.64 -73.01,73 -196.76,138.9 -401.84,193.39 -144.63,28.01 -211.36,12.7 -255.72,-15.04 80.11,72.79 231.08,81.45 479.2,2.15 95.3,-31.47 202.36,-71.3 322.33,-120.34 193.4,-77.36 425.4,-61.54 571.6,105.3 -80.83,81.14 -131.74,148.69 -141.83,197.69 70.98,267.56 118.57,535.68 79.51,805.83 32.78,30.85 56.84,65.69 75.21,103.14l73.06 -214.88c108.58,-122.2 302.99,-83.81 328.78,58.02 57.99,295.77 -173.52,425.85 -371.76,470.6 -63.36,8.9 -115.95,10.48 -116.04,-23.64l-2.14 -49.42c-1.53,128.28 -104.83,267.52 -262.17,412.58 -184.4,173.8 -450.49,236.6 -769.29,227.78 -210.78,-21.49 -404.1,-127.39 -588.79,-275.06 -71.13,-43.89 -139.16,-96.99 -197.69,-178.35 -79.86,-113.49 -122.59,-233.92 -83.81,-369.61 36.19,-67.44 85.43,-94.37 143.98,-92.4 -49.53,-20.37 -98.45,-18.44 -146.13,27.94 -62.09,-200.17 -96.44,-396.5 -85.95,-586.64 27.93,-229.93 103.14,-350.27 201.99,-380.35z"></path> <path class="fil5 str0" d="M9700.21 1770.22c124.86,44.65 216.46,139.45 242.61,311.41 6.19,118.59 -43.86,223.28 -139.5,296.75 -127.02,83.52 -251.64,76.36 -384.84,3.84 -45.82,-22.21 -159.03,-128.47 -167.35,-269.52 -9.03,-133.96 54.31,-224.43 130.07,-285.43 94.07,-71.7 212.7,-92.7 319.01,-57.05z"></path> <path class="fil5 str0" d="M8553.21 1793.76c-132.17,56.13 -207.7,154.75 -228.63,294.32 -6.19,118.58 38.84,210.4 125,280.72 118.51,74.4 243.16,87.39 376.37,14.87 94.07,-66.38 144.98,-144.94 153.29,-285.99 0.71,-120.09 -46.09,-203.46 -121.86,-264.45 -94.07,-71.71 -196.19,-79.01 -304.17,-39.47z"></path> <path class="fil5 str0" d="M9201.75 1652.71c-59.53,99.2 -24.89,164.83 60.31,151.59 103.88,-42.9 253.57,-131.2 375.55,-150.23 113.45,-29.53 215.03,-1.63 285.72,145.04 21.07,67.68 42.14,135.35 63.22,203.02 2.47,8.28 4.92,16.74 11.26,-7.8 32.09,-123.69 31.49,-226.57 13,-318.08 -60.32,-173.44 -197.84,-260.33 -398.67,-223.67 -161.86,50.13 -317.54,96.94 -410.39,200.13z"></path> <path class="fil4 str0" d="M8126.66 2206.56l72.74 233.01c-62.81,-48.65 -123.64,-90.58 -178.68,-112.82 -115.13,-40.4 -133.25,84.25 -87.13,196.04 0.27,-57.95 24.58,-93.34 100.92,-79.87 -8.51,81.34 28.06,141.02 98.85,184.24 -22.83,-38.72 -41.34,-78.74 -48.91,-122.03 -5.88,-28.71 3,-40.97 28.16,-35.08 28.33,8.32 56.66,20.25 84.98,36.56 10.92,108.9 45.51,200.89 110.78,270.96 -60.79,29.02 -125.24,25.1 -193.97,-17.24 -149.46,-98.46 -231.04,-176.43 -255.6,-237.23 -81.2,-160.04 -82.24,-268.63 -15.28,-333.58 43.84,-43.43 92.49,-50.77 145.18,-27.86l137.96 44.9z"></path> <path class="fil5 str0" d="M10237.81 2450.16c50.57,-44.33 96.69,-84.27 104.13,-85.98 40.6,-22.59 81.33,-28.45 97.44,9.55 11.93,29.58 4.99,70.21 -15.76,118.94 48.24,-48.28 78.18,-110.29 57.32,-194.88 53.53,-10.99 80.76,30.06 87.96,110.67 13.9,-76.96 -2.37,-135.4 -48.49,-175.52 -48.09,-34.57 -106.35,-4.92 -168.14,46.91 -52.21,49.04 -90.37,105.81 -114.46,170.31z"></path> <path class="fil5 str0" d="M8946.72 1817.22c37.18,37.87 51.71,15.57 43.1,-29.84 -64.37,-167.4 -169.03,-297.2 -326.23,-377.96 -154.45,-47.55 -281.09,-1.97 -373.65,157.81 -55.82,135.83 -67.18,268.37 -39.45,398.02 41.15,-139.71 92.22,-259.59 179.86,-306.35 188.6,-82.33 358.72,-13.1 516.37,158.32z"></path> <path class="fil5 str0" d="M8508.18 1301.99c47.47,-44.36 164.69,-12.27 230.46,38.52 -93.27,-42.17 -166.46,-54.58 -230.46,-38.52z"></path> <path class="fil5 str0" d="M9210.85 1558.37c-62.05,101.14 -74.43,183.64 -58.88,255.67 5.36,-81.65 20.26,-165.69 58.88,-255.67z"></path> <path class="fil5 str0" d="M8946.72 1817.22c63.78,107.02 91.08,232.29 70.47,381.52 -14,89.96 -35.19,159.78 -58.53,223.59 -16.41,52.49 -33.74,90.29 -52.16,110.83 -69.85,100 -145.98,154.8 -228.13,166.34 -101.4,20.75 -133.62,47.13 -130.31,76.43 4.95,39.08 33.17,84.79 82.99,136.68 83.87,88 152.45,124.02 215.58,141.51 -92.1,-39.9 -172.52,-103.98 -235.61,-203.98 -18.13,-44.11 -12.28,-74.63 46.29,-75.21 37.28,5.18 206.99,132.92 502.65,140.31 176.46,2.97 357.77,-57.06 544.49,-187.47 62.87,-57.58 119.88,-93.29 157.55,-56.97 26.91,21.98 39.72,55.72 39.17,100.59 24.87,-19.87 43.04,-46.76 35.73,-100.34 -2.18,-11.62 2.94,-14.6 17.12,-6.84 12.94,9.52 25.24,31.38 36.38,75.32 -2.25,-91.07 -57.76,-135.45 -155.36,-142.94 -34.54,-0.25 -69.76,4.91 -105.28,12.41 -98.24,12.79 -172.56,-9.23 -231.98,-52.93 -53.06,-31.13 -98.14,-70.96 -141.23,-112.96 49.65,64.2 81.1,123.15 30.07,158.32 -42.62,27.32 -96.92,35.19 -139.72,59.24 -20.82,3.43 -91.86,56.37 -182.29,124.76 -82.31,43.89 -137.11,-21.88 -128.23,-168.69 20.56,-139.34 53.49,-197.55 80.24,-296.32 54.27,-201.23 30.56,-368.79 -69.9,-503.2z"></path> <path class="fil5 str0" d="M8956.99 2271.13c-32.91,167.91 -184.3,258.11 -394.55,230.58 156.87,0.66 311.68,-44.71 394.55,-230.58z"></path> <path class="fil5 str0" d="M8954.76 2949c57.36,73.58 278.75,114.14 331.68,36.29 -211.75,3.74 -229.81,-20.62 -331.68,-36.29z"></path> <path class="fil5 str0" d="M9954.42 2259.3c111.74,-5.34 172.93,27.24 187.34,94.89 -36.85,-52.11 -93.71,-88.21 -187.34,-94.89z"></path> <path class="fil5 str0" d="M9435.98 2415.6c143.36,144.19 341.87,105.64 462.85,-44.36 -171.87,133.88 -325.23,142.41 -462.85,44.36z"></path> <path class="fil4 str0" d="M8677.7 2757.98c200.26,120.12 423.35,159.31 673,104.32 133.54,-34.34 267.09,-99.35 400.63,-204.91l-302.63 -58.11c-45.43,35.4 -95.17,58.85 -141.77,74.35 -65.02,25.76 -122.52,65.03 -177.77,108.37 -88.64,72.24 -135.39,60.69 -175.09,35.02 -47.67,-34.74 -78.46,-88.71 -55.8,-203.54l21.88 -82.07c-35.42,61.43 -93.64,129.95 -242.45,226.57z"></path> <path class="fil1 str0" d="M8355.44 2087.74c-23.61,83.63 -3.08,146.07 42.61,196.44 104.91,121.63 288.3,159.35 414.69,83.15 79.61,-43.91 146.83,-102.4 148.63,-238.01 4.36,-107.54 -17.26,-193.62 -77.37,-261.56 -80.57,-83.18 -170.9,-98.9 -278.09,-62.71 -137.24,59.77 -221.32,153.63 -250.47,282.69z"></path> <path class="fil1 str0" d="M9906.3 2080.48c18.34,197.37 -46.73,222.16 -83.51,257.78 -115.93,86.61 -246.78,98.13 -375.44,43.07 -132.4,-62.24 -172.18,-164.56 -173.97,-300.17 7.38,-103.83 49.93,-156.83 89.63,-196.95 80.57,-83.17 219.53,-123.43 339.43,-79.88 133.43,49.02 179.35,122.66 203.86,276.15z"></path> <circle class="fil5 str0" cx="8651.08" cy="2123.33" r="111.55"></circle> <ellipse class="fil5 str0" cx="9524.98" cy="2113.14" rx="101.82" ry="105.74"></ellipse> </g> </svg> 